<?xml version="1.0" encoding="UTF-8"?>
<!-- Generated by jsxcad -->
<!DOCTYPE svg PUBLIC "-//W3C//DTD SVG 1.1 Tiny//EN" "http://www.w3.org/Graphics/SVG/1.1/DTD/svg11-tiny.dtd">
<svg baseProfile="tiny" height="10.000000000000007mm" width="10.000000000000007mm" viewBox="-5.0000000000000036 -5.0000000000000036 5.0000000000000036 5.0000000000000036" version="1.1" stroke="black" stroke-width=".1" fill="none" xmlns="http://www.w3.org/2000/svg">
<path fill="#000000" stroke="#000000" d="M-1.40866278420714 14.797464868072495 L-0.7115741913664174 14.949107209404671 L3.061616997868383e-16 15.000000000000005 L0.7115741913664266 14.94910720940467 L1.4086627842071489 14.797464868072492 L2.0770750650094345 14.548159976772597 L2.7032040872779888 14.206267664155911 L3.2743036697264265 13.778747871771296 L3.7787478717712917 13.27430366972643 L4.206267664155907 12.703204087277992 L4.548159976772592 12.077075065009437 L4.797464868072487 11.408662784207154 L4.949107209404664 10.71157419136643 L5 10.000000000000004 L4.949107209404663 9.28842580863358 L4.7974648680724865 8.591337215792857 L4.548159976772592 7.922924934990574 L4.206267664155906 7.296795912722018 L3.7787478717712917 6.725696330273581 L3.2743036697264256 6.221252128228715 L2.7032040872779888 5.793732335844101 L2.0770750650094323 5.4518400232274145 L1.4086627842071489 5.20253513192752 L0.7115741913664255 5.050892790595342 L-1.914284349463475e-15 5.000000000000006 L-0.7115741913664262 5.050892790595342 L-1.4086627842071495 5.20253513192752 L-2.0770750650094345 5.451840023227415 L-2.70320408727799 5.793732335844101 L-3.2743036697264265 6.221252128228716 L-3.7787478717712926 6.725696330273582 L-4.206267664155908 7.296795912722021 L-4.5481599767725935 7.922924934990577 L-4.797464868072488 8.591337215792862 L-4.949107209404665 9.288425808633583 L-5 10.000000000000009 L-4.949107209404663 10.711574191366438 L-4.797464868072486 11.408662784207158 L-4.548159976772589 12.077075065009444 L-4.206267664155902 12.703204087277998 L-3.7787478717712872 13.274303669726434 L-3.2743036697264194 13.778747871771301 L-2.7032040872779834 14.206267664155915 L-2.077075065009428 14.548159976772599 z"/>
</svg>