<?xml version="1.0" encoding="UTF-8"?>
<!-- Generated by jsxcad -->
<!DOCTYPE svg PUBLIC "-//W3C//DTD SVG 1.1 Tiny//EN" "http://www.w3.org/Graphics/SVG/1.1/DTD/svg11-tiny.dtd">
<svg baseProfile="tiny" height="11.56250mm" width="9.94475mm" viewBox="-0.00095 1.56250 9.94475 11.56250" version="1.1" stroke="black" stroke-width=".1" fill="none" xmlns="http://www.w3.org/2000/svg">
<path fill="#000000" stroke="#000000" d="M-0.00095 6.03764 L0.64290 4.05973 L2.03686 2.51425 L3.93033 1.67209 L6.01252 1.67209 L7.90600 2.51425 L9.29995 4.05973 L9.94380 6.03764 L9.72819 8.10304 L8.68277 9.91302 L7.00131 11.13192 L4.97143 11.56250 L2.94155 11.13192 L1.26009 9.91302 L0.21467 8.10304 z"/>
<path stroke="#000000" d="M 0.00000 1.56250 L 9.93750 1.56250 L 9.93750 11.56250 L 0.00000 11.56250 z"/>
<path stroke="#000000" d="M 0.71429 12.81250 L 0.66964 12.67857 L 0.58036 12.58929 L 0.44643 12.54464 L 0.40179 12.54464 L 0.26786 12.58929 L 0.17857 12.67857 L 0.13393 12.81250 L 0.13393 12.85714 L 0.17857 12.99107 L 0.26786 13.08036 L 0.40179 13.12500 L 0.44643 13.12500 L 0.58036 13.08036 L 0.66964 12.99107 L 0.71429 12.81250 L 0.71429 12.58929 L 0.66964 12.36607 L 0.58036 12.23214 L 0.44643 12.18750 L 0.35714 12.18750 L 0.22321 12.23214 L 0.17857 12.32143"/>
<path stroke="#000000" d="M 1.11607 12.27679 L 1.07143 12.23214 L 1.11607 12.18750 L 1.16071 12.23214 z"/>
<path stroke="#000000" d="M 2.05357 12.81250 L 2.00893 12.67857 L 1.91964 12.58929 L 1.78571 12.54464 L 1.74107 12.54464 L 1.60714 12.58929 L 1.51786 12.67857 L 1.47321 12.81250 L 1.47321 12.85714 L 1.51786 12.99107 L 1.60714 13.08036 L 1.74107 13.12500 L 1.78571 13.12500 L 1.91964 13.08036 L 2.00893 12.99107 L 2.05357 12.81250 L 2.05357 12.58929 L 2.00893 12.36607 L 1.91964 12.23214 L 1.78571 12.18750 L 1.69643 12.18750 L 1.56250 12.23214 L 1.51786 12.32143"/>
<path stroke="#000000" d="M 2.81250 13.12500 L 2.36607 12.50000 L 3.03571 12.50000 M 2.81250 13.12500 L 2.81250 12.18750"/>
<path stroke="#000000" d=""/>
<path stroke="#000000" d="M 3.97321 12.81250 L 4.46429 12.18750 M 4.46429 12.81250 L 3.97321 12.18750"/>
<path stroke="#000000" d=""/>
<path stroke="#000000" d="M 5.58036 12.94643 L 5.66964 12.99107 L 5.80357 13.12500 L 5.80357 12.18750"/>
<path stroke="#000000" d="M 6.60714 13.12500 L 6.47321 13.08036 L 6.38393 12.94643 L 6.33929 12.72321 L 6.33929 12.58929 L 6.38393 12.36607 L 6.47321 12.23214 L 6.60714 12.18750 L 6.69643 12.18750 L 6.83036 12.23214 L 6.91964 12.36607 L 6.96429 12.58929 L 6.96429 12.72321 L 6.91964 12.94643 L 6.83036 13.08036 L 6.69643 13.12500 z"/>
</svg>