<?xml version="1.0" encoding="UTF-8"?>
<!-- Generated by jsxcad -->
<!DOCTYPE svg PUBLIC "-//W3C//DTD SVG 1.1 Tiny//EN" "http://www.w3.org/Graphics/SVG/1.1/DTD/svg11-tiny.dtd">
<svg baseProfile="tiny" height="11.56250mm" width="9.89924mm" viewBox="-0.00000 1.56250 9.89924 11.56250" version="1.1" stroke="black" stroke-width=".1" fill="none" xmlns="http://www.w3.org/2000/svg">
<path fill="#000000" stroke="#000000" d="M0.00076 5.85184 L1.16877 3.29106 L3.53708 1.76629 L6.36292 1.76629 L8.73123 3.29106 L9.89924 5.85184 L9.49874 8.63831 L7.65701 10.76632 L4.95000 11.56250 L2.24299 10.76632 L0.40126 8.63831 z"/>
<path stroke="#000000" d="M 0.00000 1.56250 L 9.88889 1.56250 L 9.88889 11.56250 L 0.00000 11.56250 z"/>
<path stroke="#000000" d="M 0.71429 12.81250 L 0.66964 12.67857 L 0.58036 12.58929 L 0.44643 12.54464 L 0.40179 12.54464 L 0.26786 12.58929 L 0.17857 12.67857 L 0.13393 12.81250 L 0.13393 12.85714 L 0.17857 12.99107 L 0.26786 13.08036 L 0.40179 13.12500 L 0.44643 13.12500 L 0.58036 13.08036 L 0.66964 12.99107 L 0.71429 12.81250 L 0.71429 12.58929 L 0.66964 12.36607 L 0.58036 12.23214 L 0.44643 12.18750 L 0.35714 12.18750 L 0.22321 12.23214 L 0.17857 12.32143"/>
<path stroke="#000000" d="M 1.11607 12.27679 L 1.07143 12.23214 L 1.11607 12.18750 L 1.16071 12.23214 z"/>
<path stroke="#000000" d="M 1.69643 13.12500 L 1.56250 13.08036 L 1.51786 12.99107 L 1.51786 12.90179 L 1.56250 12.81250 L 1.65179 12.76786 L 1.83036 12.72321 L 1.96429 12.67857 L 2.05357 12.58929 L 2.09821 12.50000 L 2.09821 12.36607 L 2.05357 12.27679 L 2.00893 12.23214 L 1.87500 12.18750 L 1.69643 12.18750 L 1.56250 12.23214 L 1.51786 12.27679 L 1.47321 12.36607 L 1.47321 12.50000 L 1.51786 12.58929 L 1.60714 12.67857 L 1.74107 12.72321 L 1.91964 12.76786 L 2.00893 12.81250 L 2.05357 12.90179 L 2.05357 12.99107 L 2.00893 13.08036 L 1.87500 13.12500 z"/>
<path stroke="#000000" d="M 2.94643 12.81250 L 2.90179 12.67857 L 2.81250 12.58929 L 2.67857 12.54464 L 2.63393 12.54464 L 2.50000 12.58929 L 2.41071 12.67857 L 2.36607 12.81250 L 2.36607 12.85714 L 2.41071 12.99107 L 2.50000 13.08036 L 2.63393 13.12500 L 2.67857 13.12500 L 2.81250 13.08036 L 2.90179 12.99107 L 2.94643 12.81250 L 2.94643 12.58929 L 2.90179 12.36607 L 2.81250 12.23214 L 2.67857 12.18750 L 2.58929 12.18750 L 2.45536 12.23214 L 2.41071 12.32143"/>
<path stroke="#000000" d=""/>
<path stroke="#000000" d="M 3.97321 12.81250 L 4.46429 12.18750 M 4.46429 12.81250 L 3.97321 12.18750"/>
<path stroke="#000000" d=""/>
<path stroke="#000000" d="M 5.58036 12.94643 L 5.66964 12.99107 L 5.80357 13.12500 L 5.80357 12.18750"/>
<path stroke="#000000" d="M 6.60714 13.12500 L 6.47321 13.08036 L 6.38393 12.94643 L 6.33929 12.72321 L 6.33929 12.58929 L 6.38393 12.36607 L 6.47321 12.23214 L 6.60714 12.18750 L 6.69643 12.18750 L 6.83036 12.23214 L 6.91964 12.36607 L 6.96429 12.58929 L 6.96429 12.72321 L 6.91964 12.94643 L 6.83036 13.08036 L 6.69643 13.12500 z"/>
</svg>