<?xml version="1.0" encoding="UTF-8"?>
<!-- Generated by jsxcad -->
<!DOCTYPE svg PUBLIC "-//W3C//DTD SVG 1.1 Tiny//EN" "http://www.w3.org/Graphics/SVG/1.1/DTD/svg11-tiny.dtd">
<svg baseProfile="tiny" height="9.974346637725837mm" width="9.987165451049812mm" viewBox="0 0 9.987165451049812 9.974346637725837" version="1.1" stroke="black" stroke-width=".1" fill="none" xmlns="http://www.w3.org/2000/svg">
<path fill="#000000" stroke="#000000" d="M3.0218 9.58196 L3.98709 9.88482 L4.99358 9.98717 L6.00008 9.88482 L6.96536 9.58196 L7.84992 9.09099 L8.61755 8.43201 L9.2368 7.63199 L9.68234 6.7237 L9.93592 5.74431 L9.98717 4.73393 L9.83397 3.73391 L9.48261 2.7852 L8.94746 1.92664 L8.25045 1.19338 L7.42009 0.61544 L6.4904 0.21648 L5.49942 0.01283 L4.48774 0.01283 L3.49677 0.21648 L2.56707 0.61544 L1.73672 1.19338 L1.0397 1.92664 L0.50456 2.7852 L0.1532 3.73391 L0 4.73393 L0.05124 5.74431 L0.30482 6.7237 L0.75036 7.63199 L1.36962 8.43201 L2.13724 9.09099 z"/>
</svg>